# xmcd
#
# Track frame offsets: 
#        183
#        15523
#        33400
#        47115
#        63738
#        75348
#        96748
#        111270
#        127588
#        144503
#        167005
#
# Disc length: 2433 seconds
#
# Revision: 0
# Processed by: cddbd v1.5PL3 Copyright (c) Steve Scherf et al.
# Submitted via: ExactAudioCopy v0.95a4
#
DISCID=8c097f0b
DTITLE=Maura O'Connell - Western Highway
DYEAR=1994
DGENRE=Folk
TTITLE0=Trouble In The Fields
TTITLE1=Cast A Long Shadow
TTITLE2=Summerfly
TTITLE3=Bed For The Night
TTITLE4=Isn't It Always Love
TTITLE5=Helpless Heart
TTITLE6=Can't Stop The Girl
TTITLE7=Just Like The Blues
TTITLE8=Only A Fool
TTITLE9=Western Highway
TTITLE10=You'll Never Know
EXTD=
EXTT0=
EXTT1=
EXTT2=
EXTT3=
EXTT4=
EXTT5=
EXTT6=
EXTT7=
EXTT8=
EXTT9=
EXTT10=
PLAYORDER=
